<svg id="primitive_txt" xmlns="http://www.w3.org/2000/svg" viewBox="0 0 454.6 137.26"><defs><style>.cls-1{fill: currentColor;}</style></defs><g id="PrimitiveText"><g id="LOGO_TEXT_1_copy"><path id="dot_-_right" class="cls-1" d="m329.52,38.08c-1.73,0-3.38-.35-4.93-1.04-1.56-.69-2.91-1.63-4.05-2.81-1.14-1.18-2.06-2.55-2.75-4.1-.69-1.56-1.04-3.24-1.04-5.04s.35-3.6,1.04-5.2c.69-1.59,1.61-2.96,2.75-4.1,1.14-1.14,2.49-2.04,4.05-2.7,1.56-.66,3.2-.99,4.93-.99,1.87,0,3.6.33,5.2.99,1.59.66,2.96,1.56,4.1,2.7,1.14,1.14,2.04,2.51,2.7,4.1.66,1.59.99,3.33.99,5.2s-.33,3.48-.99,5.04c-.66,1.56-1.56,2.93-2.7,4.1-1.14,1.18-2.51,2.11-4.1,2.81-1.59.69-3.33,1.04-5.2,1.04Z"/><path id="dot_-_middle" class="cls-1" d="m278.96,38.28c-1.13,0-2.19-.22-3.2-.67-1.01-.45-1.89-1.06-2.63-1.82-.74-.76-1.34-1.65-1.79-2.67-.45-1.01-.67-2.1-.67-3.27s.22-2.34.67-3.37c.45-1.03,1.05-1.92,1.79-2.67.74-.74,1.62-1.33,2.63-1.75,1.01-.43,2.08-.64,3.2-.64,1.21,0,2.34.21,3.37.64,1.03.43,1.92,1.01,2.67,1.75s1.33,1.63,1.75,2.67c.43,1.04.64,2.16.64,3.37s-.21,2.26-.64,3.27c-.43,1.01-1.01,1.9-1.75,2.67-.74.77-1.63,1.37-2.67,1.82-1.04.45-2.16.67-3.37.67Z"/><path id="dot_-left" class="cls-1" d="m156.06,52.29c-1.62,0-3.15-.32-4.61-.97s-2.72-1.52-3.78-2.62c-1.07-1.1-1.92-2.38-2.57-3.83-.65-1.46-.97-3.02-.97-4.7s.32-3.36.97-4.85c.65-1.49,1.5-2.76,2.57-3.83,1.07-1.07,2.33-1.91,3.78-2.52,1.46-.61,2.99-.92,4.61-.92,1.75,0,3.36.31,4.85.92,1.49.62,2.76,1.45,3.83,2.52,1.07,1.07,1.91,2.34,2.52,3.83.61,1.49.92,3.1.92,4.85s-.31,3.25-.92,4.7c-.62,1.45-1.45,2.73-2.52,3.83-1.07,1.1-2.34,1.97-3.83,2.62-1.49.65-3.1.97-4.85.97Z"/><g id="PRIMITIVE"><path class="cls-1" d="m102.78,69.59c-.05,2.06-.13,4.4-.24,7.01-.11,2.61-.25,5.23-.44,7.84-.19,2.61-.44,5.1-.75,7.44-.32,2.35-.69,4.34-1.11,5.98-.37,1.37-.21,2.69.48,3.96.69,1.27,1.58,2.23,2.69,2.89,1.11.66,2.23.86,3.37.6,1.13-.26,1.97-1.24,2.49-2.93.74-2.38,1.36-4.96,1.86-7.76.5-2.8.91-5.57,1.23-8.32.32-2.74.54-5.33.67-7.76.13-2.43.22-4.44.28-6.02h14.18c-2.64,7.02-4.66,13.45-6.06,19.29-1.4,5.83-2.1,11.36-2.1,16.59,0,3.59.51,6.56,1.54,8.91,1.03,2.35,2.35,4.24,3.96,5.66,1.61,1.43,3.41,2.43,5.39,3.01,1.98.58,3.92.87,5.82.87,3.48,0,6.52-.82,9.11-2.46,2.56-1.62,4.76-3.66,6.59-6.1.59,1.52,1.36,2.87,2.36,4.05,1.16,1.37,2.59,2.47,4.28,3.29,1.69.82,3.62,1.23,5.78,1.23,3.48,0,6.52-.82,9.11-2.46,1.99-1.26,3.76-2.78,5.31-4.54.01,1.47.26,2.65.75,3.55.5.92,1.13,1.64,1.9,2.14.76.5,1.61.84,2.53,1.03.92.19,1.78.28,2.57.28,1.16,0,2.05-.23,2.65-.67.61-.45,1.06-1,1.35-1.66.29-.66.45-1.4.48-2.22.03-.82.04-1.62.04-2.42v-23.68c.26-3.22.96-6.43,2.1-9.62,1.13-3.19,2.46-6.06,3.96-8.59,1.5-2.53,3.04-4.59,4.59-6.18,1.56-1.58,2.89-2.38,4-2.38.69,0,1.23.25,1.62.75.4.5.7,1.18.91,2.02.21.84.36,1.82.43,2.93.08,1.11.12,2.3.12,3.56v41.02c0,1.53.25,2.76.75,3.68.5.92,1.13,1.64,1.9,2.14.76.5,1.61.84,2.53,1.03.92.19,1.78.28,2.57.28,1.16,0,2.04-.23,2.65-.67.61-.45,1.06-1,1.35-1.66.29-.66.45-1.4.48-2.22.03-.82.04-1.62.04-2.42v-23.68c.21-3.22.9-6.43,2.06-9.62,1.16-3.19,2.48-6.06,3.96-8.59,1.48-2.53,3.01-4.59,4.59-6.18,1.58-1.58,2.93-2.38,4.04-2.38.68,0,1.23.25,1.62.75.4.5.7,1.18.91,2.02.21.84.34,1.82.4,2.93.05,1.11.08,2.3.08,3.56v32.95c0,2.06.3,4.01.91,5.86.61,1.85,1.5,3.46,2.69,4.83,1.19,1.37,2.61,2.47,4.28,3.29,1.66.82,3.58,1.23,5.74,1.23,3.48,0,6.52-.82,9.11-2.46,2.56-1.62,4.76-3.66,6.59-6.1.59,1.52,1.37,2.87,2.36,4.05,1.16,1.37,2.59,2.47,4.28,3.29,1.69.82,3.62,1.23,5.78,1.23,3.48,0,6.52-.82,9.11-2.46,2.59-1.64,4.8-3.69,6.65-6.18.04-.05.08-.11.12-.17.7,1.84,1.61,3.4,2.74,4.64,1.32,1.45,2.89,2.51,4.71,3.17,1.82.66,3.81.99,5.98.99,3.48,0,6.52-.82,9.11-2.46,2.55-1.61,4.75-3.64,6.6-6.07.59,1.5,1.36,2.85,2.34,4.01,1.16,1.37,2.59,2.47,4.28,3.29,1.69.82,3.62,1.23,5.78,1.23,3.48,0,6.52-.82,9.11-2.46,2.48-1.57,4.62-3.54,6.42-5.89.47,1.37,1.1,2.59,1.9,3.67,1.06,1.43,2.47,2.56,4.24,3.41,1.77.84,3.95,1.27,6.53,1.27,4.75,0,9.05-1.06,12.91-3.17,3.85-2.11,7.14-4.99,9.86-8.63,2.72-3.64,4.82-7.89,6.3-12.75.02-.07.04-.14.06-.21.4,2.22,1,4.31,1.79,6.27,1.61,3.99,3.75,7.34,6.41,10.06,2.66,2.72,5.73,4.8,9.19,6.26,3.46,1.45,7.04,2.18,10.73,2.18,3.96,0,7.47-.5,10.53-1.5,3.06-1.01,5.73-2.32,8-3.96,2.27-1.64,4.18-3.5,5.74-5.58,1.56-2.09,2.84-4.21,3.84-6.38,1-2.16,1.76-4.3,2.26-6.41.5-2.11.86-3.99,1.07-5.62.16-1.43-.2-2.65-1.07-3.68-.87-1.03-1.9-1.7-3.09-2.02-1.19-.32-2.35-.17-3.48.44-1.14.61-1.89,1.81-2.26,3.6-.47,2.48-1.19,4.94-2.14,7.36-.95,2.43-2.21,4.62-3.76,6.57-1.56,1.95-3.47,3.52-5.74,4.71-2.27,1.19-4.99,1.78-8.16,1.78-2.11,0-3.97-.26-5.58-.79-1.61-.53-3.02-1.24-4.24-2.14-1.22-.9-2.26-1.97-3.13-3.21-.87-1.24-1.57-2.55-2.1-3.92,3.91-1.16,7.35-2.86,10.34-5.11,2.98-2.24,5.49-4.78,7.52-7.6,2.03-2.82,3.56-5.82,4.59-8.99,1.03-3.17,1.55-6.26,1.55-9.27,0-2.43-.33-4.65-.99-6.65-.66-2.01-1.62-3.74-2.89-5.19-1.27-1.45-2.81-2.57-4.63-3.37-1.82-.79-3.87-1.19-6.14-1.19-3.12,0-6.15.91-9.11,2.73-2.96,1.82-5.6,4.34-7.92,7.56-2.28,3.16-4.12,6.9-5.54,11.21-.21-1.25-.46-2.49-.79-3.72-.9-3.35-2.05-6.35-3.45-8.99-1.4-2.64-2.94-4.76-4.63-6.38-1.69-1.61-3.35-2.42-4.99-2.42-.79,0-1.58.28-2.38.83-.79.55-1.5,1.24-2.14,2.06-.63.82-1.15,1.69-1.55,2.61-.4.92-.59,1.76-.59,2.5,0,.48.26.75.79.83.53.08,1,.28,1.43.59.53.42,1.17.98,1.94,1.66.76.69,1.49,1.7,2.18,3.05.68,1.35,1.28,3.1,1.78,5.27.5,2.17.75,4.88.75,8.16,0,4.7-.52,8.9-1.55,12.59-1.03,3.7-2.35,6.82-3.96,9.39-1.61,2.56-3.43,4.51-5.46,5.86-2.03,1.35-4.05,2.02-6.06,2.02-1.43,0-2.38-.45-2.85-1.35-.48-.9-.71-2.11-.71-3.64v-43.64c0-1.95-.78-3.63-2.34-5.03-1.56-1.4-3.68-2.1-6.38-2.1-1.16,0-2.17.25-3.01.75-.84.5-1.27,1.15-1.27,1.94,0,.58.12,1.22.36,1.9.24.69.36,1.79.36,3.33v26.54c-.28,1.69-.52,3.19-.63,3.8-.37,1.8-.85,3.71-1.43,5.74-.58,2.03-1.31,3.92-2.18,5.66-.87,1.74-1.9,3.19-3.09,4.36-1.19,1.16-2.57,1.74-4.16,1.74-1.06,0-1.87-.32-2.45-.95-.58-.63-1.01-1.37-1.27-2.22-.27-.84-.42-1.68-.48-2.5-.05-.82-.08-1.41-.08-1.78v-41.18c0-1.95-.78-3.63-2.34-5.03-1.56-1.4-3.68-2.1-6.38-2.1-1.16,0-2.17.25-3.01.75-.84.5-1.27,1.15-1.27,1.94,0,.58.12,1.22.36,1.9.24.69.36,1.79.36,3.33v23.84c-.31,2.91-.57,5.72-.71,6.49-.37,1.8-.83,3.71-1.39,5.74-.55,2.03-1.27,3.92-2.14,5.66-.87,1.74-1.9,3.19-3.09,4.36-1.19,1.16-2.6,1.74-4.24,1.74s-3.04-.58-4.04-1.74c-1-1.16-1.5-3.06-1.5-5.7v-51.4c4.33,0,8.99-.01,13.98-.04,4.99-.03,10.73-.12,17.23-.28.68,0,1.31-.4,1.86-1.19.55-.79.99-1.73,1.31-2.81.32-1.08.53-2.2.63-3.37.11-1.16.09-2.14-.04-2.93-.13-.79-.42-1.29-.87-1.5-.45-.21-1.04.08-1.78.87-5.54.26-11.08.45-16.59.55-5.52.11-10.76.16-15.72.16v-28.43c0-1.95-.78-3.63-2.34-5.03-1.56-1.4-3.68-2.1-6.38-2.1-.58,0-1.18.04-1.78.12-.61.08-1.18.2-1.7.36-.53.16-.95.34-1.27.55-.32.21-.48.48-.48.79,0,.26.09.51.28.75.18.24.37.55.55.95.18.4.37.94.55,1.62.18.69.28,1.61.28,2.77v27.48c-2.22-.05-4.22-.09-6.02-.12-1.79-.03-3.33-.09-4.59-.2-1.48-.05-2.82-.13-4.04-.24-1.16,0-1.89.57-2.18,1.7-.29,1.14-.24,2.39.16,3.76.4,1.37,1.08,2.63,2.06,3.76.98,1.14,2.1,1.7,3.37,1.7.84.05,1.82.11,2.93.16.95.05,2.13.09,3.52.12,1.4.03,3,.04,4.79.04v36.2c-.27,2.25-.49,4.42-.63,5.14-.37,1.8-.85,3.71-1.43,5.74-.58,2.03-1.31,3.92-2.18,5.66-.87,1.74-1.9,3.19-3.09,4.36-1.19,1.16-2.57,1.74-4.16,1.74-1.06,0-1.88-.32-2.45-.95-.58-.63-1.01-1.37-1.27-2.22-.27-.84-.42-1.68-.48-2.5-.05-.82-.08-1.41-.08-1.78v-41.18c0-1.95-.78-3.63-2.34-5.03-1.56-1.4-3.68-2.1-6.38-2.1-1.16,0-2.17.25-3.01.75-.84.5-1.27,1.15-1.27,1.94,0,.58.12,1.22.36,1.9.24.69.36,1.79.36,3.33v24.19c-.26,2.66-.48,5.34-.63,6.15-.37,1.8-.84,3.71-1.43,5.74-.58,2.03-1.31,3.92-2.18,5.66-.87,1.74-1.9,3.19-3.09,4.36-1.19,1.16-2.6,1.74-4.24,1.74-1.06,0-1.86-.32-2.42-.95-.55-.63-.96-1.37-1.23-2.22-.27-.84-.42-1.68-.48-2.5-.05-.82-.08-1.41-.08-1.78v-33.58c0-1.85-.19-3.75-.55-5.7-.37-1.95-1.03-3.72-1.98-5.31-.95-1.58-2.27-2.88-3.96-3.88-1.69-1-3.86-1.5-6.49-1.5-1.85,0-3.58.4-5.19,1.19-1.61.79-3.13,1.87-4.55,3.25-1.43,1.37-2.74,2.98-3.96,4.83-1.22,1.85-2.32,3.86-3.33,6.02-.11-1.79-.37-3.6-.79-5.43-.42-1.82-1.12-3.47-2.1-4.95-.98-1.48-2.27-2.66-3.88-3.56-1.61-.9-3.63-1.35-6.06-1.35-1.85,0-3.58.4-5.19,1.19-1.61.79-3.13,1.89-4.55,3.29-1.43,1.4-2.76,3.05-4,4.95-1.24,1.9-2.39,3.96-3.45,6.18v-6.81c0-1.95-.78-3.63-2.34-5.03-1.56-1.4-3.68-2.1-6.38-2.1-1.16,0-2.17.25-3.01.75-.85.5-1.27,1.15-1.27,1.94,0,.58.12,1.22.36,1.9.24.69.36,1.79.36,3.33v27.31c-.29,1.3-.52,2.46-.63,3.02-.37,1.8-.84,3.71-1.43,5.74-.58,2.03-1.31,3.92-2.18,5.66-.87,1.74-1.9,3.19-3.09,4.36-1.19,1.16-2.57,1.74-4.16,1.74-1.06,0-1.87-.32-2.46-.95-.58-.63-1-1.37-1.27-2.22-.26-.84-.42-1.68-.47-2.5-.05-.82-.08-1.41-.08-1.78v-41.18c0-1.95-.78-3.63-2.34-5.03-1.56-1.4-3.68-2.1-6.38-2.1-1.16,0-2.17.25-3.01.75-.85.5-1.27,1.15-1.27,1.94,0,.58.12,1.22.36,1.9.24.69.36,1.79.36,3.33v26.66c-.34,1.73-.62,3.17-.71,3.67-.37,1.8-.83,3.71-1.39,5.74-.55,2.03-1.28,3.92-2.18,5.66-.9,1.74-2.01,3.19-3.33,4.36-1.32,1.16-2.91,1.74-4.75,1.74-1.11,0-2.07-.24-2.89-.71-.82-.47-1.49-1.12-2.02-1.94-.53-.82-.92-1.76-1.19-2.81-.27-1.06-.4-2.14-.4-3.25,0-2.69.18-5.45.55-8.28.37-2.82.82-5.56,1.35-8.2.53-2.64,1.11-5.16,1.74-7.56.63-2.4,1.21-4.53,1.74-6.38.53-1.85.98-3.38,1.35-4.59.37-1.21.55-1.98.55-2.3.16-.95-.07-1.95-.67-3.01-.61-1.06-1.36-2.04-2.26-2.97-.9-.92-1.81-1.68-2.73-2.26-.92-.58-1.62-.87-2.1-.87h-9.74c-.42,0-.95-.03-1.58-.08-.63-.05-1.41-.12-2.34-.2-.92-.08-2.05-.2-3.37-.36-.47-1.63-1.08-3.01-1.82-4.12-.74-1.11-1.57-2.01-2.49-2.69-.92-.69-1.9-1.16-2.93-1.43-1.03-.26-2.02-.4-2.97-.4-1.06,0-2.09.17-3.09.52-1,.34-1.87.84-2.61,1.5-.74.66-1.33,1.45-1.78,2.38-.45.92-.67,1.94-.67,3.05,0,2.38.66,4.42,1.98,6.14,1.32,1.72,2.98,3.13,4.99,4.24Zm304.98,20.55c.11-1.66.32-3.42.63-5.27.32-1.85.73-3.68,1.23-5.51.5-1.82,1.14-3.46,1.9-4.91.76-1.45,1.66-2.63,2.69-3.52,1.03-.9,2.2-1.35,3.53-1.35,1.06,0,1.89.5,2.49,1.5.61,1,.91,2.4.91,4.2,0,2.43-.32,4.77-.95,7.01-.63,2.25-1.53,4.32-2.69,6.22-1.16,1.9-2.56,3.59-4.2,5.07-1.64,1.48-3.46,2.69-5.46,3.64,0-.53-.03-1.03-.08-1.5-.05-.48-.08-.95-.08-1.43-.05-1.11-.03-2.49.08-4.16Z"/><path class="cls-1" d="m31.73,30.71c0-1.64-.13-2.84-.38-3.57-.25-.74-.38-1.42-.38-2.04,0-.85.45-1.56,1.36-2.13.91-.57,1.98-.85,3.23-.85,2.89,0,5.23.75,7.02,2.26,1.79,1.5,2.68,3.33,2.68,5.49v56.92c1.98-.23,4.24-.79,6.76-1.7,2.52-.91,5.12-2.17,7.79-3.79,2.67-1.62,5.26-3.62,7.78-6,2.52-2.38,4.78-5.16,6.76-8.34,1.98-3.18,3.59-6.76,4.81-10.76,1.22-4,1.83-8.44,1.83-13.32,0-3.29-.52-6.69-1.57-10.21-1.05-3.52-2.71-6.72-4.98-9.61-2.27-2.89-5.2-5.28-8.81-7.15-3.6-1.87-7.95-2.81-13.06-2.81-6.98,0-12.96,1.08-17.95,3.23-4.99,2.16-9.06,5.05-12.21,8.68-3.15,3.63-5.46,7.84-6.93,12.63-1.48,4.79-2.21,9.86-2.21,15.19,0,3.86.33,7.1.98,9.74.65,2.64,1.37,4.79,2.17,6.47.79,1.67,1.53,2.91,2.21,3.7.68.79,1.08,1.25,1.19,1.36.96-.28,1.64-.17,2.04.34.4.51.6,1.19.6,2.04,0,.79-.27,1.99-.81,3.57-.54,1.59-1.26,3.08-2.17,4.47-.91,1.39-1.96,2.44-3.15,3.15-1.19.71-2.41.58-3.66-.38-.68-.62-1.73-1.76-3.15-3.4-1.42-1.64-2.82-3.84-4.21-6.59-1.39-2.75-2.62-6.07-3.7-9.95-1.08-3.88-1.62-8.38-1.62-13.49,0-8.17,1.28-15.56,3.83-22.16,2.55-6.61,6.14-12.26,10.76-16.97,4.62-4.71,10.14-8.34,16.55-10.89,6.41-2.55,13.5-3.83,21.27-3.83,6.35,0,12.12,1.05,17.31,3.15,5.19,2.1,9.61,5.04,13.27,8.81,3.66,3.77,6.48,8.27,8.47,13.49,1.98,5.22,2.98,10.92,2.98,17.1,0,7.6-1.36,14.62-4.08,21.06-2.72,6.44-6.35,12.15-10.89,17.14-4.54,4.99-9.77,9.13-15.7,12.42-5.93,3.29-12.1,5.53-18.51,6.72v33.38c0,1.47-.48,2.51-1.45,3.11-.96.6-2.1.89-3.4.89-1.02,0-2.04-.14-3.06-.43-1.02-.29-1.94-.65-2.76-1.11-.82-.46-1.5-.98-2.04-1.57-.54-.6-.81-1.23-.81-1.91V30.71Z"/></g></g></g></svg>